<svg width="48" height="48" viewBox="0 0 48 48" fill="none" xmlns="http://www.w3.org/2000/svg">
<g id="carbon:security">
<path id="Vector" d="M21 24.885L17.115 21L15 23.115L21 29.115L33 17.115L30.885 15L21 24.885Z" fill="#1C3268"/>
<path id="Vector_2" d="M24 45L14.736 40.0605C12.095 38.6555 9.88646 36.5578 8.34739 33.9926C6.80832 31.4274 5.99683 28.4915 6.00001 25.5V6C6.0008 5.20459 6.31713 4.44199 6.87957 3.87956C7.442 3.31712 8.2046 3.00079 9.00001 3H39C39.7954 3.00079 40.558 3.31712 41.1205 3.87956C41.6829 4.44199 41.9992 5.20459 42 6V25.5C42.0032 28.4915 41.1917 31.4274 39.6526 33.9926C38.1136 36.5578 35.905 38.6555 33.264 40.0605L24 45ZM9.00001 6V25.5C8.99752 27.9477 9.66166 30.3499 10.9212 32.4487C12.1806 34.5475 13.9879 36.2637 16.149 37.413L24 41.5995L31.851 37.4145C34.0123 36.265 35.8197 34.5486 37.0793 32.4495C38.3388 30.3504 39.0028 27.948 39 25.5V6H9.00001Z" fill="#1C3268"/>
</g>
</svg>
