<svg width="24" height="24" viewBox="0 0 24 24" fill="none" xmlns="http://www.w3.org/2000/svg">
<g id="vuesax/linear/building">
<g id="building">
<path id="Vector" d="M12.5007 22.0003H4.0807C2.9207 22.0003 1.9707 21.0703 1.9707 19.9303V5.09035C1.9707 2.47035 3.9207 1.28035 6.3107 2.45035L10.7507 4.63035C11.7107 5.10035 12.5007 6.35035 12.5007 7.41035V22.0003Z" stroke="#121139" stroke-opacity="0.7" stroke-width="1.5" stroke-linecap="round" stroke-linejoin="round"/>
<path id="Vector_2" d="M21.97 15.0601V18.8401C21.97 21.0001 20.97 22.0001 18.81 22.0001H12.5V10.4201L12.97 10.5201L17.47 11.5301L19.5 11.9801C20.82 12.2701 21.9 12.9501 21.96 14.8701C21.97 14.9301 21.97 14.9901 21.97 15.0601Z" stroke="#121139" stroke-opacity="0.7" stroke-width="1.2" stroke-linecap="round" stroke-linejoin="round"/>
<path id="Vector_3" d="M5.5 9.00012H8.97" stroke="#121139" stroke-opacity="0.7" stroke-width="1.5" stroke-linecap="round" stroke-linejoin="round"/>
<path id="Vector_4" d="M5.5 13.0001H8.97" stroke="#121139" stroke-opacity="0.7" stroke-width="1.5" stroke-linecap="round" stroke-linejoin="round"/>
<path id="Vector_5" d="M17.4707 11.5305V14.7505C17.4707 15.9905 16.4607 17.0005 15.2207 17.0005C13.9807 17.0005 12.9707 15.9905 12.9707 14.7505V10.5205L17.4707 11.5305Z" stroke="#121139" stroke-opacity="0.7" stroke-width="1.5" stroke-linecap="round" stroke-linejoin="round"/>
<path id="Vector_6" d="M21.9607 14.8703C21.9007 16.0503 20.9207 17.0003 19.7207 17.0003C18.4807 17.0003 17.4707 15.9903 17.4707 14.7503V11.5303L19.5007 11.9803C20.8207 12.2703 21.9007 12.9503 21.9607 14.8703Z" stroke="#121139" stroke-opacity="0.7" stroke-width="1.5" stroke-linecap="round" stroke-linejoin="round"/>
</g>
</g>
</svg>
