<svg width="60" height="60" viewBox="0 0 60 60" fill="none" xmlns="http://www.w3.org/2000/svg">
<g id="tabler:users-plus">
<path id="Vector" d="M7.5 52.5V47.5C7.5 44.8478 8.55357 42.3043 10.4289 40.4289C12.3043 38.5536 14.8478 37.5 17.5 37.5H27.5C29.9 37.5 32.1 38.345 33.825 39.7525M40 7.825C42.151 8.37575 44.0576 9.62675 45.4191 11.3808C46.7806 13.1348 47.5196 15.2921 47.5196 17.5125C47.5196 19.7329 46.7806 21.8902 45.4191 23.6442C44.0576 25.3982 42.151 26.6492 40 27.2M40 47.5H55M47.5 40V55M12.5 17.5C12.5 20.1522 13.5536 22.6957 15.4289 24.5711C17.3043 26.4464 19.8478 27.5 22.5 27.5C25.1522 27.5 27.6957 26.4464 29.5711 24.5711C31.4464 22.6957 32.5 20.1522 32.5 17.5C32.5 14.8478 31.4464 12.3043 29.5711 10.4289C27.6957 8.55357 25.1522 7.5 22.5 7.5C19.8478 7.5 17.3043 8.55357 15.4289 10.4289C13.5536 12.3043 12.5 14.8478 12.5 17.5Z" stroke="#1C3268" stroke-width="4" stroke-linecap="round" stroke-linejoin="round"/>
</g>
</svg>
