<svg width="24" height="24" viewBox="0 0 24 24" fill="none" xmlns="http://www.w3.org/2000/svg">
<g id="hugeicons:folder-video">
<path id="Vector" d="M7 6.504H16.75C18.857 6.504 19.91 6.504 20.667 7.011C20.994 7.23 21.275 7.511 21.494 7.839C22 8.597 22 9.891 22 12M12 6.504L11.367 5.236C10.842 4.186 10.362 3.128 9.199 2.691C8.69 2.5 8.108 2.5 6.944 2.5C5.128 2.5 4.22 2.5 3.538 2.88C3.05181 3.15168 2.65084 3.55334 2.38 4.04C2 4.722 2 5.63 2 7.45V10.509C2 15.229 2 17.588 3.464 19.054C4.578 20.169 6.21 20.436 9 20.5M19.5 16.646L19.563 16.601C20.621 15.837 21.15 15.455 21.575 15.64C22 15.825 22 16.435 22 17.658V18.342C22 19.565 22 20.176 21.575 20.36C21.15 20.545 20.621 20.163 19.563 19.4L19.5 19.354M15.5 21.5H16C17.65 21.5 18.475 21.5 18.987 21.052C19.5 20.603 19.5 19.882 19.5 18.438V17.563C19.5 16.119 19.5 15.397 18.987 14.949C18.475 14.5 17.65 14.5 16 14.5H15.5C13.85 14.5 13.025 14.5 12.513 14.948C12 15.397 12 16.118 12 17.562V18.437C12 19.881 12 20.603 12.513 21.051C13.025 21.5 13.85 21.5 15.5 21.5Z" stroke="#5A5975" stroke-width="1.2" stroke-linecap="round" stroke-linejoin="round"/>
</g>
</svg>
