<svg width="24" height="24" viewBox="0 0 24 24" fill="none" xmlns="http://www.w3.org/2000/svg">
<g id="clarity:help-line" clip-path="url(#clip0_772_14451)">
<path id="Vector" d="M11.9997 1.33301C9.89001 1.33301 7.82772 1.9586 6.0736 3.13067C4.31947 4.30273 2.9523 5.96864 2.14496 7.91772C1.33763 9.8668 1.12639 12.0115 1.53797 14.0806C1.94955 16.1498 2.96545 18.0504 4.45721 19.5421C5.94897 21.0339 7.84959 22.0498 9.91872 22.4614C11.9878 22.873 14.1326 22.6617 16.0816 21.8544C18.0307 21.0471 19.6966 19.6799 20.8687 17.9258C22.0408 16.1716 22.6663 14.1093 22.6663 11.9997C22.6663 9.1707 21.5425 6.45759 19.5422 4.4572C17.5418 2.45681 14.8287 1.33301 11.9997 1.33301ZM11.9997 21.333C10.1537 21.333 8.34922 20.7856 6.81436 19.7601C5.2795 18.7345 4.08322 17.2768 3.3768 15.5714C2.67039 13.8659 2.48555 11.9893 2.84568 10.1788C3.20581 8.36834 4.09473 6.7053 5.40002 5.40001C6.70531 4.09472 8.36835 3.20581 10.1788 2.84568C11.9893 2.48555 13.8659 2.67038 15.5714 3.3768C17.2768 4.08322 18.7345 5.27949 19.7601 6.81435C20.7856 8.34921 21.333 10.1537 21.333 11.9997C21.333 14.475 20.3497 16.849 18.5993 18.5993C16.849 20.3497 14.475 21.333 11.9997 21.333Z" fill="#5A5975"/>
<path id="Vector_2" d="M12.1937 5.94696C11.4712 5.93502 10.755 6.08234 10.096 6.37846C9.4369 6.67458 8.85115 7.11222 8.38033 7.66029C8.31492 7.72091 8.26233 7.79404 8.22569 7.87534C8.18904 7.95664 8.16909 8.04447 8.16699 8.13363C8.16695 8.21588 8.18345 8.29731 8.21552 8.37305C8.24758 8.4488 8.29456 8.51732 8.35365 8.57455C8.41273 8.63177 8.48273 8.67652 8.55947 8.70614C8.6362 8.73576 8.71811 8.74964 8.80033 8.74696C8.97644 8.74259 9.14485 8.67381 9.27366 8.55363C9.62997 8.13608 10.0725 7.80068 10.5708 7.57051C11.0691 7.34034 11.6114 7.22086 12.1603 7.22029C13.7337 7.22029 14.7137 8.23363 14.7137 9.49363V9.52696C14.7137 11.0003 13.5403 11.8203 11.687 11.9603C11.6119 11.9632 11.5384 11.9819 11.471 12.0152C11.4037 12.0485 11.3442 12.0957 11.2964 12.1536C11.2486 12.2115 11.2135 12.2788 11.1935 12.3512C11.1735 12.4236 11.169 12.4994 11.1803 12.5736C11.1803 12.5736 11.1803 14.1203 11.1803 14.407C11.1969 14.572 11.2744 14.7249 11.3977 14.8358C11.5209 14.9468 11.6811 15.0078 11.847 15.007H11.9203C12.0853 14.9904 12.2383 14.9129 12.3492 14.7896C12.4601 14.6663 12.5212 14.5061 12.5203 14.3403V12.967C14.5203 12.687 16.1403 11.6336 16.1403 9.44696V9.41363C16.1203 7.41363 14.5603 5.94696 12.1937 5.94696Z" fill="#5A5975"/>
<path id="Vector_3" d="M11.8529 18.3005C12.3131 18.3005 12.6862 17.9274 12.6862 17.4671C12.6862 17.0069 12.3131 16.6338 11.8529 16.6338C11.3926 16.6338 11.0195 17.0069 11.0195 17.4671C11.0195 17.9274 11.3926 18.3005 11.8529 18.3005Z" fill="#5A5975"/>
</g>
<defs>
<clipPath id="clip0_772_14451">
<rect width="24" height="24" fill="white"/>
</clipPath>
</defs>
</svg>
