<svg width="24" height="24" viewBox="0 0 24 24" fill="none" xmlns="http://www.w3.org/2000/svg">
<g id="material-symbols-light:library-books-outline">
<path id="Vector" d="M10 13.5H13.48V12.5H10V13.5ZM10 10.5H16.962V9.5H10V10.5ZM10 7.5H16.962V6.5H10V7.5ZM8.116 17C7.65534 17 7.271 16.846 6.963 16.538C6.655 16.23 6.50067 15.8457 6.5 15.385V4.615C6.5 4.155 6.65434 3.77067 6.963 3.462C7.27167 3.15334 7.656 2.99934 8.116 3H18.885C19.345 3 19.7293 3.154 20.038 3.462C20.3467 3.77 20.5007 4.15434 20.5 4.615V15.385C20.5 15.845 20.346 16.229 20.038 16.537C19.73 16.845 19.3453 16.9993 18.884 17H8.116ZM8.116 16H18.885C19.0383 16 19.1793 15.936 19.308 15.808C19.4367 15.68 19.5007 15.539 19.5 15.385V4.615C19.5 4.46167 19.436 4.32067 19.308 4.192C19.18 4.06334 19.0387 3.99934 18.884 4H8.116C7.962 4 7.82067 4.064 7.692 4.192C7.56334 4.32 7.49934 4.461 7.5 4.615V15.385C7.5 15.5383 7.564 15.6793 7.692 15.808C7.82 15.9367 7.961 16.0007 8.115 16M5.115 20C4.655 20 4.27067 19.846 3.962 19.538C3.65334 19.23 3.49934 18.8457 3.5 18.385V6.615H4.5V18.385C4.5 18.5383 4.564 18.6793 4.692 18.808C4.82 18.9367 4.961 19.0007 5.115 19H16.885V20H5.115Z" fill="#1C3268"/>
</g>
</svg>
