<svg width="37" height="37" viewBox="0 0 37 37" fill="none" xmlns="http://www.w3.org/2000/svg">
<g id="Logo">
<rect id="Rectangle 42" width="37" height="37" rx="6.91704" fill="#F3F3FF"/>
<g id="Group 1">
<g id="Group 19238">
<path id="Vector" d="M22.414 21.6575C21.9927 21.7211 21.5607 21.7564 21.1182 21.7564C16.4836 21.7564 12.7271 18.0071 12.7271 13.3815C12.7306 9.89375 14.8656 6.90424 17.9033 5.64624C13.6972 6.50846 10.4647 10.028 10.0398 14.3674L9.99026 15.6855L8.22354 19.2793C8.01111 19.8659 8.29081 20.5161 8.86083 20.7705L10.408 21.4525V24.4561C10.408 25.7 11.4277 26.7142 12.6704 26.7142H15.7118V30.3716C15.7118 30.9652 16.3526 31.3398 16.8731 31.0536L25.2641 26.4386C23.8514 25.1417 22.8707 23.4879 22.414 21.661V21.6575Z" fill="#1B3267"/>
<g id="Group 45">
<path id="Subtract" fill-rule="evenodd" clip-rule="evenodd" d="M28.0063 14.4457C27.876 14.5873 27.6806 14.6658 27.4119 14.6658C26.6676 18.3124 23.1336 20.6598 19.5187 19.9089C15.9038 19.1581 13.5767 15.5933 14.321 11.9468C14.5675 10.7394 15.1197 9.67448 15.8795 8.81726C14.9135 9.61187 14.2281 10.81 13.8994 12.42C13.1043 16.3155 15.6147 20.1287 19.5067 20.9371C23.3987 21.7455 27.1983 19.2429 27.9935 15.3475C28.0189 15.0411 28.0227 14.7402 28.0063 14.4457Z" fill="#1C3268"/>
<path id="Union" fill-rule="evenodd" clip-rule="evenodd" d="M24.0844 8.52618C22.9902 7.79922 21.6778 7.45065 20.3514 7.54732C18.7866 7.66137 17.3287 8.38592 16.2941 9.56366C15.9072 10.0041 15.5912 10.4947 15.352 11.0179C14.9769 11.7518 14.7611 12.5729 14.7475 13.442C14.7118 15.7377 16.0338 17.7825 18.0364 18.7722C18.384 18.9632 18.7663 19.1293 19.1805 19.2512C20.324 19.62 23.3812 19.8868 25.4348 17.5798V12.801V9.48171C25.1315 10.8 23.8946 11.9064 23.2878 12.0712V18.4743C23.1385 18.7757 22.9611 18.5999 22.8911 18.4743V12.2831L20.6974 13.3895V16.0025C20.4547 16.3039 20.2229 16.1281 20.1373 16.0025V13.6485C18.0384 14.8033 18.0389 16.5216 18.0391 17.1265C18.0391 17.1875 18.0391 17.2371 18.037 17.2738C18.0223 17.5255 17.9342 17.6483 17.8216 17.6587C16.591 16.6249 15.83 15.0397 15.8585 13.2046C15.8864 11.4187 16.7524 9.98033 18.0562 9.01959C18.5883 8.72497 19.1699 8.48372 19.694 8.32821C21.9388 7.66217 23.4089 8.28031 24.2998 8.68193C24.3092 8.68695 24.3187 8.692 24.3281 8.69707C24.3254 8.69506 24.3227 8.69306 24.32 8.69107C24.3385 8.69943 24.3568 8.70768 24.3748 8.71583C24.402 8.72815 24.4287 8.7402 24.4547 8.75194C24.3498 8.68032 24.2256 8.60388 24.0844 8.52618Z" fill="#1C3268"/>
<path id="Polygon 3" d="M27.6284 13.6534L28.7602 15.6308H26.4966L27.6284 13.6534Z" fill="#1C3268"/>
</g>
</g>
</g>
</g>
</svg>
