<svg width="117" height="17" viewBox="0 0 117 17" fill="none" xmlns="http://www.w3.org/2000/svg">
<path id="Vector" d="M7.91001 0.020813C11.0107 0.020813 13.1112 0.868736 15.0117 2.98853L12.5861 5.78166C11.4858 4.13571 10.0855 3.3626 7.98503 3.3626C6.20962 3.3626 5.28441 4.06089 5.28441 5.00856C5.28441 5.85647 6.18461 6.30538 8.53516 6.72934C13.1112 7.55231 14.8866 9.02369 14.8866 11.9166C14.8866 15.1337 11.8859 16.9791 7.91001 16.9791C4.00911 16.9791 1.95863 15.9816 0.333252 14.186L2.53376 11.1934C3.88408 13.0638 5.48445 13.6374 7.68496 13.6374C9.53539 13.6374 10.4356 13.0887 10.4356 12.141C10.4356 11.3679 9.48538 10.944 7.23486 10.52C3.33395 9.74691 0.808364 8.59974 0.808364 5.38264C0.808364 2.29024 3.38396 0.020813 7.91001 0.020813ZM27.9534 16.7298L23.8526 9.64716L21.8521 12.0912V16.7298H17.5511V0.270206H21.8521V7.57725L27.7535 0.270206H32.5295L26.9283 6.95379L32.8296 16.7298H27.9534ZM39.1904 0.270206V16.7298H34.8894V0.270206H39.1904ZM47.151 13.4129H55.428V16.7298H42.85V0.270206H47.151V13.4129ZM62.1933 13.4129H70.4702V16.7298H57.8923V0.270206H62.1933V13.4129ZM81.0908 8.32541V11.7919H71.9387V8.32541H81.0908ZM99.4032 0.270206V10.0212C99.4032 14.6599 96.9026 16.9791 92.0265 16.9791C87.1753 16.9791 84.6497 14.6599 84.6497 10.0212V0.270206H88.9758V10.0961C88.9758 12.4652 89.976 13.6124 92.0265 13.6124C94.102 13.6124 95.1272 12.4652 95.1272 10.0961V0.270206H99.4032ZM110.353 0.270206C114.454 0.270206 116.729 2.19048 116.729 5.73178C116.729 9.09851 114.454 11.0188 110.353 11.0188H107.077V16.7298H102.776V0.270206H110.353ZM109.677 7.87652C111.578 7.87652 112.403 7.15329 112.403 5.6819C112.403 4.23546 111.578 3.51224 109.677 3.51224H107.077V7.87652H109.677Z" fill="#1C3268"/>
</svg>
